<mxfile host="www.draw.io" modified="2020-02-26T16:11:49.210Z" agent="Mozilla/5.0 (Windows NT 10.0; Win64; x64; rv:68.0) Gecko/20100101 Firefox/68.0" etag="z5J60ybHfXmMeDwf6MN_" version="12.7.7" type="github">
  <diagram id="mhGmN9VacKXid8Tg7UuF" name="Page-1">
    <mxGraphModel dx="1182" dy="761" grid="1" gridSize="10" guides="1" tooltips="1" connect="1" arrows="1" fold="1" page="1" pageScale="1" pageWidth="850" pageHeight="1100" math="0" shadow="0">
      <root>
        <mxCell id="0" />
        <mxCell id="1" parent="0" />
        <mxCell id="ntQQL8qWPsEnUn1-VM-D-1" value="6" style="ellipse;whiteSpace=wrap;html=1;aspect=fixed;" vertex="1" parent="1">
          <mxGeometry x="330" y="330" width="80" height="80" as="geometry" />
        </mxCell>
        <mxCell id="ntQQL8qWPsEnUn1-VM-D-2" value="10" style="ellipse;whiteSpace=wrap;html=1;aspect=fixed;" vertex="1" parent="1">
          <mxGeometry x="540" y="610" width="80" height="80" as="geometry" />
        </mxCell>
        <mxCell id="ntQQL8qWPsEnUn1-VM-D-3" value="9" style="ellipse;whiteSpace=wrap;html=1;aspect=fixed;" vertex="1" parent="1">
          <mxGeometry x="300" y="550" width="80" height="80" as="geometry" />
        </mxCell>
        <mxCell id="ntQQL8qWPsEnUn1-VM-D-4" value="8" style="ellipse;whiteSpace=wrap;html=1;aspect=fixed;" vertex="1" parent="1">
          <mxGeometry x="170" y="430" width="80" height="80" as="geometry" />
        </mxCell>
        <mxCell id="ntQQL8qWPsEnUn1-VM-D-5" value="7" style="ellipse;whiteSpace=wrap;html=1;aspect=fixed;" vertex="1" parent="1">
          <mxGeometry x="600" y="380" width="80" height="80" as="geometry" />
        </mxCell>
        <mxCell id="ntQQL8qWPsEnUn1-VM-D-6" value="5" style="ellipse;whiteSpace=wrap;html=1;aspect=fixed;" vertex="1" parent="1">
          <mxGeometry x="600" y="240" width="80" height="80" as="geometry" />
        </mxCell>
        <mxCell id="ntQQL8qWPsEnUn1-VM-D-7" value="4" style="ellipse;whiteSpace=wrap;html=1;aspect=fixed;" vertex="1" parent="1">
          <mxGeometry x="200" y="210" width="80" height="80" as="geometry" />
        </mxCell>
        <mxCell id="ntQQL8qWPsEnUn1-VM-D-8" value="2" style="ellipse;whiteSpace=wrap;html=1;aspect=fixed;" vertex="1" parent="1">
          <mxGeometry x="620" y="60" width="80" height="80" as="geometry" />
        </mxCell>
        <mxCell id="ntQQL8qWPsEnUn1-VM-D-9" value="1" style="ellipse;whiteSpace=wrap;html=1;aspect=fixed;" vertex="1" parent="1">
          <mxGeometry x="160" y="10" width="80" height="80" as="geometry" />
        </mxCell>
        <mxCell id="ntQQL8qWPsEnUn1-VM-D-10" value="3" style="ellipse;whiteSpace=wrap;html=1;aspect=fixed;" vertex="1" parent="1">
          <mxGeometry x="385" y="190" width="80" height="80" as="geometry" />
        </mxCell>
        <mxCell id="ntQQL8qWPsEnUn1-VM-D-11" value="5" style="endArrow=none;html=1;entryX=1;entryY=1;entryDx=0;entryDy=0;" edge="1" parent="1" target="ntQQL8qWPsEnUn1-VM-D-7">
          <mxGeometry width="50" height="50" relative="1" as="geometry">
            <mxPoint x="345" y="340" as="sourcePoint" />
            <mxPoint x="395" y="290" as="targetPoint" />
          </mxGeometry>
        </mxCell>
        <mxCell id="ntQQL8qWPsEnUn1-VM-D-12" value="20" style="endArrow=none;html=1;entryX=0;entryY=1;entryDx=0;entryDy=0;" edge="1" parent="1" target="ntQQL8qWPsEnUn1-VM-D-1">
          <mxGeometry width="50" height="50" relative="1" as="geometry">
            <mxPoint x="240" y="445" as="sourcePoint" />
            <mxPoint x="290" y="395" as="targetPoint" />
          </mxGeometry>
        </mxCell>
        <mxCell id="ntQQL8qWPsEnUn1-VM-D-13" value="8" style="endArrow=none;html=1;entryX=0.5;entryY=1;entryDx=0;entryDy=0;" edge="1" parent="1" target="ntQQL8qWPsEnUn1-VM-D-8">
          <mxGeometry width="50" height="50" relative="1" as="geometry">
            <mxPoint x="640" y="240" as="sourcePoint" />
            <mxPoint x="690" y="190" as="targetPoint" />
          </mxGeometry>
        </mxCell>
        <mxCell id="ntQQL8qWPsEnUn1-VM-D-14" value="10" style="endArrow=none;html=1;entryX=0;entryY=0.5;entryDx=0;entryDy=0;" edge="1" parent="1" target="ntQQL8qWPsEnUn1-VM-D-6">
          <mxGeometry width="50" height="50" relative="1" as="geometry">
            <mxPoint x="465" y="240" as="sourcePoint" />
            <mxPoint x="515" y="190" as="targetPoint" />
          </mxGeometry>
        </mxCell>
        <mxCell id="ntQQL8qWPsEnUn1-VM-D-15" value="" style="endArrow=none;html=1;entryX=0;entryY=0.5;entryDx=0;entryDy=0;" edge="1" parent="1" target="ntQQL8qWPsEnUn1-VM-D-5">
          <mxGeometry width="50" height="50" relative="1" as="geometry">
            <mxPoint x="375" y="570" as="sourcePoint" />
            <mxPoint x="425" y="520" as="targetPoint" />
          </mxGeometry>
        </mxCell>
        <mxCell id="ntQQL8qWPsEnUn1-VM-D-22" value="18" style="text;html=1;align=center;verticalAlign=middle;resizable=0;points=[];labelBackgroundColor=#ffffff;" vertex="1" connectable="0" parent="ntQQL8qWPsEnUn1-VM-D-15">
          <mxGeometry x="0.1097" y="3" relative="1" as="geometry">
            <mxPoint as="offset" />
          </mxGeometry>
        </mxCell>
        <mxCell id="ntQQL8qWPsEnUn1-VM-D-16" value="1" style="endArrow=none;html=1;exitX=0.5;exitY=0;exitDx=0;exitDy=0;" edge="1" parent="1" source="ntQQL8qWPsEnUn1-VM-D-2">
          <mxGeometry width="50" height="50" relative="1" as="geometry">
            <mxPoint x="590" y="510" as="sourcePoint" />
            <mxPoint x="640" y="460" as="targetPoint" />
          </mxGeometry>
        </mxCell>
        <mxCell id="ntQQL8qWPsEnUn1-VM-D-17" value="22" style="endArrow=none;html=1;entryX=0.5;entryY=1;entryDx=0;entryDy=0;" edge="1" parent="1" target="ntQQL8qWPsEnUn1-VM-D-6">
          <mxGeometry width="50" height="50" relative="1" as="geometry">
            <mxPoint x="635" y="380" as="sourcePoint" />
            <mxPoint x="685" y="330" as="targetPoint" />
          </mxGeometry>
        </mxCell>
        <mxCell id="ntQQL8qWPsEnUn1-VM-D-18" value="10" style="endArrow=none;html=1;entryX=-0.037;entryY=0.413;entryDx=0;entryDy=0;entryPerimeter=0;" edge="1" parent="1" target="ntQQL8qWPsEnUn1-VM-D-8">
          <mxGeometry width="50" height="50" relative="1" as="geometry">
            <mxPoint x="240" y="50" as="sourcePoint" />
            <mxPoint x="290" as="targetPoint" />
          </mxGeometry>
        </mxCell>
        <mxCell id="ntQQL8qWPsEnUn1-VM-D-19" value="" style="endArrow=none;html=1;exitX=0;exitY=0;exitDx=0;exitDy=0;" edge="1" parent="1" source="ntQQL8qWPsEnUn1-VM-D-4">
          <mxGeometry width="50" height="50" relative="1" as="geometry">
            <mxPoint x="140" y="140" as="sourcePoint" />
            <mxPoint x="190" y="90" as="targetPoint" />
          </mxGeometry>
        </mxCell>
        <mxCell id="ntQQL8qWPsEnUn1-VM-D-20" value="8" style="endArrow=none;html=1;entryX=0.313;entryY=0.95;entryDx=0;entryDy=0;entryPerimeter=0;exitX=0.738;exitY=0.075;exitDx=0;exitDy=0;exitPerimeter=0;" edge="1" parent="1" source="ntQQL8qWPsEnUn1-VM-D-1" target="ntQQL8qWPsEnUn1-VM-D-10">
          <mxGeometry width="50" height="50" relative="1" as="geometry">
            <mxPoint x="410" y="360" as="sourcePoint" />
            <mxPoint x="460" y="310" as="targetPoint" />
          </mxGeometry>
        </mxCell>
        <mxCell id="ntQQL8qWPsEnUn1-VM-D-21" value="30" style="endArrow=none;html=1;exitX=1;exitY=0;exitDx=0;exitDy=0;" edge="1" parent="1" source="ntQQL8qWPsEnUn1-VM-D-3">
          <mxGeometry width="50" height="50" relative="1" as="geometry">
            <mxPoint x="400" y="310" as="sourcePoint" />
            <mxPoint x="450" y="260" as="targetPoint" />
          </mxGeometry>
        </mxCell>
      </root>
    </mxGraphModel>
  </diagram>
</mxfile>
